<svg width="24" height="24" viewBox="0 0 24 24" fill="none" xmlns="http://www.w3.org/2000/svg">
<path fill-rule="evenodd" clip-rule="evenodd" d="M2 12C2 6.477 6.477 2 12 2C17.523 2 22 6.477 22 12C22 17.523 17.523 22 12 22C6.477 22 2 17.523 2 12ZM12 4C9.87827 4 7.84344 4.84285 6.34315 6.34315C4.84285 7.84344 4 9.87827 4 12C4 14.1217 4.84285 16.1566 6.34315 17.6569C7.84344 19.1571 9.87827 20 12 20C14.1217 20 16.1566 19.1571 17.6569 17.6569C19.1571 16.1566 20 14.1217 20 12C20 9.87827 19.1571 7.84344 17.6569 6.34315C16.1566 4.84285 14.1217 4 12 4Z" fill="#151414"/>
<path fill-rule="evenodd" clip-rule="evenodd" d="M12.8333 7.83309C12.8333 7.61208 12.7455 7.40011 12.5893 7.24383C12.433 7.08755 12.221 6.99976 12 6.99976C11.779 6.99976 11.567 7.08755 11.4107 7.24383C11.2545 7.40011 11.1667 7.61208 11.1667 7.83309V11.1664H7.83333C7.61232 11.1664 7.40036 11.2542 7.24408 11.4105C7.0878 11.5668 7 11.7787 7 11.9998C7 12.2208 7.0878 12.4327 7.24408 12.589C7.40036 12.7453 7.61232 12.8331 7.83333 12.8331H11.1667V16.1664C11.1667 16.3874 11.2545 16.5994 11.4107 16.7557C11.567 16.912 11.779 16.9998 12 16.9998C12.221 16.9998 12.433 16.912 12.5893 16.7557C12.7455 16.5994 12.8333 16.3874 12.8333 16.1664V12.8331H16.1667C16.3877 12.8331 16.5996 12.7453 16.7559 12.589C16.9122 12.4327 17 12.2208 17 11.9998C17 11.7787 16.9122 11.5668 16.7559 11.4105C16.5996 11.2542 16.3877 11.1664 16.1667 11.1664H12.8333V7.83309Z" fill="#151414"/>
</svg>
