<svg width="24" height="24" viewBox="0 0 24 24" fill="none" xmlns="http://www.w3.org/2000/svg">
<path d="M17 9.99976C18.6569 9.99976 20 8.65661 20 6.99976C20 5.3429 18.6569 3.99976 17 3.99976C15.3431 3.99976 14 5.3429 14 6.99976C14 8.65661 15.3431 9.99976 17 9.99976Z" stroke="#151414" stroke-width="1.5" stroke-linecap="round" stroke-linejoin="round"/>
<path d="M7 19.9998C8.65685 19.9998 10 18.6566 10 16.9998C10 15.3429 8.65685 13.9998 7 13.9998C5.34315 13.9998 4 15.3429 4 16.9998C4 18.6566 5.34315 19.9998 7 19.9998Z" stroke="#151414" stroke-width="1.5" stroke-linecap="round" stroke-linejoin="round"/>
<path d="M14 13.9998H20V18.9998C20 19.265 19.8946 19.5193 19.7071 19.7069C19.5196 19.8944 19.2652 19.9998 19 19.9998H15C14.7348 19.9998 14.4804 19.8944 14.2929 19.7069C14.1054 19.5193 14 19.265 14 18.9998V13.9998ZM4 3.99976H10V8.99976C10 9.26497 9.89464 9.51933 9.70711 9.70686C9.51957 9.8944 9.26522 9.99976 9 9.99976H5C4.73478 9.99976 4.48043 9.8944 4.29289 9.70686C4.10536 9.51933 4 9.26497 4 8.99976V3.99976Z" stroke="#151414" stroke-width="1.5" stroke-linecap="round" stroke-linejoin="round"/>
</svg>
