<svg width="24" height="24" viewBox="0 0 24 24" fill="none" xmlns="http://www.w3.org/2000/svg">
<path fill-rule="evenodd" clip-rule="evenodd" d="M12 1.99976C11.0863 1.99976 10.1901 2.2501 9.40875 2.72361L4.40875 5.75361C3.67349 6.19917 3.06552 6.82679 2.64359 7.57585C2.22165 8.32491 1.99999 9.17012 2 10.0298V16.3218C2 17.6479 2.52678 18.9197 3.46447 19.8574C4.40215 20.7951 5.67392 21.3218 7 21.3218H17C18.3261 21.3218 19.5978 20.7951 20.5355 19.8574C21.4732 18.9197 22 17.6479 22 16.3218V10.0288C21.9998 9.16932 21.778 8.32414 21.3561 7.57531C20.9342 6.82648 20.3263 6.19906 19.5913 5.75362L14.5913 2.72362C13.8099 2.25011 12.9137 1.99976 12 1.99976ZM10.4453 4.43406C10.9141 4.14996 11.4518 3.99976 12 3.99976C12.5482 3.99976 13.0859 4.14996 13.5547 4.43406L18.5547 7.46406C18.9958 7.73133 19.3605 8.10779 19.6137 8.55709C19.8668 9.00632 19.9998 9.51321 20 10.0288V16.3218C20 17.1175 19.6839 17.8806 19.1213 18.4432C18.5587 19.0058 17.7956 19.3218 17 19.3218H16V16.3218C16 15.261 15.5786 14.2436 14.8284 13.4934C14.0783 12.7433 13.0609 12.3218 12 12.3218C10.9391 12.3218 9.92172 12.7433 9.17157 13.4934C8.42143 14.2436 8 15.261 8 16.3218V19.3218H7C6.20435 19.3218 5.44129 19.0058 4.87868 18.4432C4.31607 17.8806 4 17.1175 4 16.3218V10.0298C3.99999 9.514 4.13299 9.00686 4.38615 8.55741C4.63931 8.10797 5.00409 7.7314 5.44525 7.46407L10.4453 4.43406ZM13.4142 14.9076C13.7893 15.2827 14 15.7914 14 16.3218V19.3218H10V16.3218C10 15.7914 10.2107 15.2827 10.5858 14.9076C10.9609 14.5326 11.4696 14.3218 12 14.3218C12.5304 14.3218 13.0391 14.5326 13.4142 14.9076Z" fill="#151414"/>
</svg>
