<svg width="24" height="24" viewBox="0 0 24 24" fill="none" xmlns="http://www.w3.org/2000/svg">
<path fill-rule="evenodd" clip-rule="evenodd" d="M11.9981 0.999023C10.1203 0.999023 8.33339 1.79517 7.0256 3.19006C5.72078 4.58187 4.99812 6.45696 4.99812 8.39902C4.99812 11.9955 4.2766 14.236 3.60778 15.5439C3.2724 16.1997 2.94586 16.6298 2.71921 16.885C2.60564 17.0129 2.51641 17.0976 2.4627 17.1453C2.43583 17.1692 2.4178 17.1839 2.41 17.1901L2.40704 17.1924C2.06075 17.4461 1.91461 17.8932 2.04549 18.3032C2.17783 18.7177 2.563 18.999 2.99812 18.999H20.9981C21.4332 18.999 21.8184 18.7177 21.9507 18.3032C22.0816 17.8932 21.9355 17.4461 21.5892 17.1924L21.5862 17.1901C21.5784 17.1839 21.5604 17.1692 21.5335 17.1453C21.4798 17.0976 21.3906 17.0129 21.277 16.885C21.0504 16.6298 20.7238 16.1997 20.3885 15.5439C19.7196 14.236 18.9981 11.9955 18.9981 8.39902C18.9981 6.45696 18.2755 4.58189 16.9707 3.19008C15.6632 1.79668 13.8752 0.999023 11.9981 0.999023ZM2.40704 17.1924L2.41 17.1901L2.40704 17.1924ZM2.41 17.1901L2.40614 17.1931L2.41 17.1901ZM18.6078 16.4544C18.7076 16.6497 18.808 16.831 18.9075 16.999H5.08869C5.18823 16.831 5.2886 16.6497 5.38846 16.4544C6.21963 14.8291 6.99812 12.2696 6.99812 8.39902C6.99812 6.9471 7.53947 5.56618 8.48464 4.55799C9.42885 3.55088 10.694 2.99902 11.9981 2.99902C13.3009 2.99902 14.5671 3.55158 15.5116 4.55797L17.0599 10.2301C17.2596 13.0983 17.9154 15.1005 18.6078 16.4544ZM17.0599 10.2301C17.0199 9.65526 16.9981 9.04512 16.9981 8.39902C16.9981 6.94724 16.4566 5.56613 15.5116 4.55797L17.0599 10.2301Z" fill="#151414"/>
<path d="M11.1336 20.498C10.8568 20.02 10.2451 19.8569 9.76709 20.1336C9.28913 20.4103 9.12598 21.0221 9.40269 21.5C9.66614 21.9551 10.0446 22.3329 10.5002 22.5956C10.9557 22.8582 11.4723 22.9965 11.9981 22.9965C12.5239 22.9965 13.0405 22.8582 13.4961 22.5956C13.9516 22.3329 14.3301 21.9551 14.5936 21.5C14.8703 21.0221 14.7071 20.4103 14.2291 20.1336C13.7512 19.8569 13.1394 20.02 12.8627 20.498C12.7749 20.6496 12.6489 20.7754 12.4971 20.8629C12.3454 20.9504 12.1733 20.9965 11.9981 20.9965C11.823 20.9965 11.6509 20.9504 11.4991 20.8629C11.3474 20.7754 11.2213 20.6496 11.1336 20.498Z" fill="#151414"/>
</svg>
