<svg width="24" height="24" viewBox="0 0 24 24" fill="none" xmlns="http://www.w3.org/2000/svg">
<path d="M8 9C7.44772 9 7 9.44772 7 10C7 10.5523 7.44772 11 8 11H16C16.5523 11 17 10.5523 17 10C17 9.44772 16.5523 9 16 9H8Z" fill="#151414"/>
<path d="M8 13C7.44772 13 7 13.4477 7 14C7 14.5523 7.44772 15 8 15H12C12.5523 15 13 14.5523 13 14C13 13.4477 12.5523 13 12 13H8Z" fill="#151414"/>
<path d="M8 17C7.44772 17 7 17.4477 7 18C7 18.5523 7.44772 19 8 19H16C16.5523 19 17 18.5523 17 18C17 17.4477 16.5523 17 16 17H8Z" fill="#151414"/>
<path fill-rule="evenodd" clip-rule="evenodd" d="M20.8788 5.13758C20.7983 4.94282 20.6801 4.76587 20.5311 4.61689L17.3835 1.46933C17.0838 1.16919 16.6771 1.00037 16.2529 1H4.6C4.17565 1 3.76869 1.16857 3.46863 1.46863C3.16857 1.76869 3 2.17565 3 2.6V21.4C3 21.6101 3.04139 21.8182 3.12179 22.0123C3.2022 22.2064 3.32005 22.3828 3.46863 22.5314C3.6172 22.6799 3.79358 22.7978 3.98771 22.8782C4.18183 22.9586 4.38989 23 4.6 23H19.4C19.6101 23 19.8182 22.9586 20.0123 22.8782C20.2064 22.7978 20.3828 22.6799 20.5314 22.5314C20.6799 22.3828 20.7978 22.2064 20.8782 22.0123C20.9586 21.8182 21 21.6101 21 21.4V5.75031L20 5.75L21 5.75245L21 5.75031C21.0002 5.54009 20.959 5.33188 20.8788 5.13758ZM15 5.5C15 6.32843 15.6716 7 16.5 7H19V21H5V3H15V5.5ZM18.0858 5L17 3.91421V5H18.0858Z" fill="#151414"/>
</svg>
