<svg width="24" height="24" viewBox="0 0 24 24" fill="none" xmlns="http://www.w3.org/2000/svg">
<path d="M12 22C9.39375 21.4167 7.242 20.0873 5.54475 18.012C3.8475 15.9367 2.99925 13.6327 3 11.1L3 5L12 2L21 5V11.1C21 13.6333 20.1518 15.9377 18.4553 18.013C16.7588 20.0883 14.607 21.4173 12 22ZM12 19.9C13.8188 19.4 15.3375 18.4123 16.5562 16.937C17.775 15.4617 18.4875 13.816 18.6938 12H12L12 4.125L5.25 6.375L5.25 11.55C5.25 11.6667 5.26875 11.8167 5.30625 12L12 12L12 19.9Z" fill="#151414"/>
</svg>
