<svg width="24" height="24" viewBox="0 0 24 24" fill="none" xmlns="http://www.w3.org/2000/svg">
<path d="M4.00495 16.095C3.24498 16.8896 2.75205 17.9017 2.59495 18.99C2.49925 19.5344 2.46404 20.0878 2.48995 20.64V21.51H3.68995C4.13263 21.509 4.57436 21.4689 5.00995 21.39C6.10004 21.2388 7.11385 20.745 7.90495 19.98C8.36906 19.4582 8.60753 18.7738 8.56818 18.0766C8.52882 17.3794 8.21483 16.7262 7.69495 16.26C7.22364 15.7554 6.57339 15.4555 5.88362 15.4247C5.19384 15.3939 4.51943 15.6345 4.00495 16.095ZM6.61495 18.69C6.09568 19.1818 5.43412 19.4969 4.72495 19.59H4.39495V19.26C4.48806 18.5508 4.80308 17.8893 5.29495 17.37C5.39649 17.2877 5.52439 17.2451 5.65495 17.25C5.78851 17.2553 5.91965 17.2873 6.0407 17.3439C6.16176 17.4006 6.27029 17.4809 6.35995 17.58C6.53999 17.6942 6.66774 17.8748 6.71548 18.0826C6.76322 18.2904 6.7271 18.5086 6.61495 18.69ZM21.975 3.35998C21.9673 3.00831 21.8242 2.67318 21.5755 2.42445C21.3268 2.17573 20.9916 2.03262 20.64 2.02498C18.8839 1.8816 17.117 2.09325 15.4444 2.64732C13.7719 3.20139 12.2281 4.08653 10.905 5.24998L8.45995 8.09998L4.85995 7.34998C4.61442 7.29648 4.35938 7.30554 4.11825 7.3763C3.87712 7.44707 3.65764 7.57728 3.47995 7.75498L2.45995 8.77498C2.30428 8.93371 2.18584 9.12507 2.1132 9.3352C2.04056 9.54533 2.01554 9.76899 2.03995 9.98998C2.06207 10.2138 2.13421 10.4297 2.25105 10.6218C2.36789 10.814 2.52644 10.9774 2.71495 11.1L5.80495 13.08L5.99995 13.2L10.8 18.075L10.92 18.195L12.9 21.285C13.0225 21.4735 13.186 21.632 13.3781 21.7489C13.5702 21.8657 13.7862 21.9379 14.01 21.96H14.175C14.5685 21.9583 14.9456 21.8021 15.225 21.525L16.245 20.505C16.4227 20.3273 16.5529 20.1078 16.6236 19.8667C16.6944 19.6256 16.7034 19.3705 16.65 19.125L15.9 15.54L18.66 13.17C19.8452 11.8427 20.7499 10.2894 21.3196 8.60361C21.8892 6.91778 22.1122 5.13416 21.975 3.35998ZM4.66495 9.22498L6.64495 9.64498L5.68495 10.77L4.18495 9.76498L4.66495 9.22498ZM14.235 19.875L13.23 18.375L14.355 17.415L14.775 19.395L14.235 19.875ZM17.4 11.79L11.88 16.5L7.49995 12.12L12.21 6.59998C14.3923 4.71425 17.2199 3.74663 20.1 3.89998C20.247 6.77918 19.2802 9.60453 17.4 11.79Z" fill="#151414"/>
<path d="M16.695 9.94502C16.8589 9.77291 16.9867 9.5698 17.0711 9.34761C17.1555 9.12542 17.1946 8.88862 17.1862 8.6511C17.1778 8.41358 17.1221 8.18013 17.0223 7.96443C16.9225 7.74874 16.7806 7.55515 16.605 7.39502C16.4499 7.21119 16.2585 7.06148 16.0427 6.95535C15.8269 6.84922 15.5915 6.78898 15.3512 6.77841C15.111 6.76785 14.8711 6.8072 14.6469 6.89398C14.4226 6.98076 14.2188 7.11309 14.0482 7.28261C13.8776 7.45213 13.7441 7.65517 13.6559 7.87891C13.5678 8.10264 13.5269 8.34222 13.536 8.58253C13.5451 8.82283 13.6039 9.05864 13.7087 9.27508C13.8135 9.49152 13.9621 9.68388 14.145 9.84002C14.3052 10.0149 14.4984 10.1564 14.7134 10.2564C14.9285 10.3563 15.1612 10.4128 15.3981 10.4226C15.6351 10.4323 15.8717 10.3952 16.0942 10.3132C16.3168 10.2313 16.5209 10.1061 16.695 9.94502Z" fill="#151414"/>
</svg>
