<svg width="24" height="24" viewBox="0 0 24 24" fill="none" xmlns="http://www.w3.org/2000/svg">
<path d="M12 19.0183L7.8 20.8206C7.13333 21.1042 6.5 21.0502 5.9 20.6584C5.3 20.2665 5 19.7115 5 18.9933V6.00223C5 5.45155 5.196 4.9803 5.588 4.58848C5.98 4.19667 6.45067 4.00042 7 3.99976H17C17.55 3.99976 18.021 4.196 18.413 4.58848C18.805 4.98097 19.0007 5.45222 19 6.00223V18.9933C19 19.7109 18.7 20.2659 18.1 20.6584C17.5 21.0508 16.8667 21.1049 16.2 20.8206L12 19.0183ZM12 16.8156L17 18.9683V6.00223H7V18.9683L12 16.8156ZM12 6.00223H7H17H12Z" fill="#151414"/>
</svg>
