<svg width="24" height="24" viewBox="0 0 24 24" fill="none" xmlns="http://www.w3.org/2000/svg">
<path d="M17.25 5.73667C17.25 5.48246 17.1537 5.24216 16.9877 5.06782C16.8221 4.89408 16.6013 4.79976 16.375 4.79975H7.625C7.39872 4.79975 7.17785 4.89408 7.01233 5.06782C6.84632 5.24216 6.75 5.48246 6.75 5.73667V18.864L10.6909 16.5006H10.6918C11.0891 16.2625 11.5401 16.1368 12 16.1368C12.4599 16.1368 12.9109 16.2625 13.3082 16.5006H13.3091L17.25 18.8649V5.73667ZM6.31165 19.655L6.3125 19.648L6.30908 19.6497L6.31165 19.655ZM6.31165 19.655L6.30908 19.6497L6.3125 19.648L6.31165 19.655ZM19 19.6383L18.9897 19.8132C18.9682 19.9872 18.9135 20.1563 18.8291 20.3107C18.7165 20.5163 18.5535 20.6899 18.354 20.8117C18.1543 20.9335 17.9261 20.9988 17.6926 20.9997C17.4591 21.0007 17.2302 20.9372 17.0295 20.8169L12.4272 18.0563C12.2959 17.9776 12.1488 17.9368 12 17.9368C11.8512 17.9368 11.7041 17.9776 11.5728 18.0563L6.97046 20.8161C6.77007 20.9362 6.54145 20.9997 6.30823 20.9989C6.07493 20.998 5.84647 20.9332 5.64685 20.8117C5.44748 20.6902 5.2845 20.5168 5.17175 20.3116C5.05906 20.1063 5.00008 19.8746 5 19.6401V5.73667C5 5.01664 5.27195 4.32207 5.76221 3.80747C6.25306 3.29225 6.92302 2.99976 7.625 2.99976H16.375C17.077 2.99976 17.7469 3.29226 18.2378 3.80747C18.728 4.32206 19 5.01664 19 5.73667V19.6383Z" fill="#151414"/>
</svg>
