<svg width="24" height="24" viewBox="0 0 24 24" fill="none" xmlns="http://www.w3.org/2000/svg">
<path fill-rule="evenodd" clip-rule="evenodd" d="M7.625 2.99976C6.92881 2.99976 6.26113 3.28946 5.76884 3.80512C5.27656 4.32079 5 5.02019 5 5.74945V19.6244C4.99992 19.8653 5.06024 20.1019 5.17492 20.3107C5.28959 20.5194 5.45461 20.6929 5.65343 20.8139C5.85226 20.9348 6.07793 20.9989 6.30785 20.9997C6.53776 21.0006 6.76386 20.9382 6.9635 20.8187L11.566 18.0635C11.6982 17.9844 11.8478 17.9428 12 17.9428C12.1522 17.9428 12.3018 17.9844 12.434 18.0635L17.0365 20.8187C17.2361 20.9382 17.4622 21.0006 17.6922 20.9997C17.9221 20.9989 18.1477 20.9348 18.3466 20.8139C18.5454 20.6929 18.7104 20.5194 18.8251 20.3107C18.9398 20.1019 19.0001 19.8653 19 19.6244V5.74945C19 5.02019 18.7234 4.32079 18.2312 3.80512C17.7389 3.28946 17.0712 2.99976 16.375 2.99976H7.625Z" fill="#151414"/>
</svg>
