<svg width="24" height="24" viewBox="0 0 24 24" fill="none" xmlns="http://www.w3.org/2000/svg">
<path fill-rule="evenodd" clip-rule="evenodd" d="M12 8C10.9391 8 9.92172 8.42143 9.17157 9.17157C8.42143 9.92172 8 10.9391 8 12C8 13.0609 8.42143 14.0783 9.17157 14.8284C9.92172 15.5786 10.9391 16 12 16C13.0609 16 14.0783 15.5786 14.8284 14.8284C15.5786 14.0783 16 13.0609 16 12C16 10.9391 15.5786 9.92172 14.8284 9.17157C14.0783 8.42143 13.0609 8 12 8ZM10.5858 10.5858C10.9609 10.2107 11.4696 10 12 10C12.5304 10 13.0391 10.2107 13.4142 10.5858C13.7893 10.9609 14 11.4696 14 12C14 12.5304 13.7893 13.0391 13.4142 13.4142C13.0391 13.7893 12.5304 14 12 14C11.4696 14 10.9609 13.7893 10.5858 13.4142C10.2107 13.0391 10 12.5304 10 12C10 11.4696 10.2107 10.9609 10.5858 10.5858Z" fill="#151414"/>
<path fill-rule="evenodd" clip-rule="evenodd" d="M10.981 1C10.5268 1 10.1296 1.30616 10.0139 1.74545L9.50718 3.67065L7.89714 4.34936L6.66469 3.25288C6.26898 2.90083 5.66741 2.91838 5.29289 3.29289L3.29289 5.29289C2.93059 5.65519 2.90074 6.23272 3.22377 6.63045L4.3039 7.96035L3.64154 9.58988L1.77265 10.0262C1.32012 10.1318 1 10.5353 1 11V13C1 13.4509 1.30179 13.8461 1.73681 13.9647L3.6685 14.4917L4.34904 16.1061L3.25366 17.3344C2.90085 17.7301 2.91806 18.3323 3.29289 18.7071L5.29289 20.7071C5.65568 21.0699 6.23417 21.0993 6.63185 20.7751L7.96129 19.6913L9.55075 20.3452L10.0304 22.2448C10.1426 22.6889 10.542 23 11 23H13C13.4578 23 13.8571 22.6891 13.9694 22.2453L14.4503 20.3448L16.093 19.6645C16.2583 19.8031 16.4479 19.9659 16.6366 20.1302C16.824 20.2934 16.9983 20.4472 17.1258 20.5604C17.1894 20.6169 17.2413 20.6631 17.2771 20.6951L17.3315 20.7437C17.7269 21.0985 18.3315 21.0828 18.7071 20.7071L20.7071 18.7071C21.0752 18.3391 21.0993 17.7502 20.7627 17.3532L19.6734 16.0687L20.3475 14.4406L22.2515 13.9459C22.6923 13.8313 23 13.4334 23 12.978V11C23 10.5427 22.6898 10.1436 22.2466 10.0309L20.3543 9.54944L19.6819 7.92534L20.7637 6.64555C21.0993 6.2485 21.0747 5.66051 20.7071 5.29289L18.7071 3.29289C18.338 2.92378 17.7471 2.90068 17.3503 3.23985L16.0799 4.32568L14.3986 3.63439L13.9021 1.74577C13.7866 1.30633 13.3894 1 12.935 1H10.981ZM18.6416 17.9442L17.9574 18.6284L17.9499 18.6218C17.5806 18.3003 17.1049 17.8933 16.8366 17.7015C16.5558 17.5007 16.1913 17.459 15.8723 17.5911L13.2213 18.6891C12.9296 18.81 12.712 19.0615 12.6346 19.3677L12.2215 21H11.7789L11.3666 19.3672C11.289 19.06 11.0704 18.8077 10.7774 18.6872L8.17143 17.6152C7.83209 17.4756 7.44356 17.5331 7.15915 17.7649L6.06834 18.6541L5.37491 17.9607L6.26234 16.9656C6.51925 16.6775 6.58741 16.2672 6.43747 15.9116L5.32247 13.2666C5.20318 12.9836 4.96047 12.7711 4.66419 12.6903L3 12.2363V11.7934L4.60035 11.4198C4.9165 11.346 5.17714 11.1233 5.29939 10.8226L6.37939 8.16555C6.51675 7.82762 6.45921 7.44171 6.22923 7.15855L5.34472 6.0695L6.04008 5.37413L7.03931 6.26312C7.32738 6.51941 7.73714 6.58725 8.09245 6.43747L10.7374 5.32247C11.0233 5.20196 11.2371 4.95558 11.3161 4.65555L11.7518 3H12.1639L12.5909 4.62423C12.6706 4.92741 12.8878 5.17567 13.1777 5.29488L15.8847 6.40788C16.2318 6.55057 16.6295 6.48696 16.9147 6.24315L17.9468 5.361L18.6426 6.05681L17.7613 7.09945C17.5198 7.38517 17.4579 7.78181 17.601 8.12748L18.698 10.7775C18.8187 11.0689 19.0698 11.2864 19.3754 11.3641L21 11.7774V12.2046L19.3625 12.6301C19.059 12.709 18.81 12.9257 18.6901 13.2155L17.5921 15.8675C17.4487 16.2137 17.511 16.611 17.7533 16.8968L18.6416 17.9442Z" fill="#151414"/>
</svg>
