<svg width="20" height="20" viewBox="0 0 20 20" fill="none" xmlns="http://www.w3.org/2000/svg">
<path d="M11.2891 11.7907C11.5128 11.8349 11.6667 12.0359 11.6667 12.2639V12.9112C11.6667 13.2563 11.3239 13.4985 10.9856 13.4305C10.4364 13.32 9.87096 13.3024 9.31283 13.3798C8.52044 13.4897 7.76599 13.7882 7.11285 14.2502C6.45971 14.7121 5.92695 15.324 5.5593 16.0345C5.26846 16.5965 5.08766 17.2073 5.02489 17.834C4.99736 18.1088 4.77608 18.3333 4.4999 18.3333H3.83314C3.55707 18.3333 3.33129 18.1093 3.35187 17.834C3.41504 16.9886 3.63899 16.1615 4.0133 15.3975C4.46106 14.4837 5.1121 13.6844 5.91651 13.0611C6.72093 12.4378 7.65738 12.0068 8.65409 11.8014C9.52416 11.622 10.42 11.6193 11.2891 11.7907ZM10 10.8333C7.2375 10.8333 5 8.59581 5 5.83331C5 3.07081 7.2375 0.833313 10 0.833313C12.7625 0.833313 15 3.07081 15 5.83331C15 8.59581 12.7625 10.8333 10 10.8333ZM10 9.16665C11.8417 9.16665 13.3333 7.67498 13.3333 5.83331C13.3333 3.99165 11.8417 2.49998 10 2.49998C8.15833 2.49998 6.66666 3.99165 6.66666 5.83331C6.66666 7.67498 8.15833 9.16665 10 9.16665ZM14.4739 16.2414C14.6692 16.4367 14.9858 16.4367 15.181 16.2414L17.4199 14.0026C17.6151 13.8074 17.9316 13.8073 18.1269 14.0024L18.5987 14.4739C18.7941 14.6692 18.7941 14.9858 18.5988 15.1812L15.181 18.5989C14.9858 18.7942 14.6692 18.7942 14.4739 18.5989L12.2345 16.3595C12.0392 16.1642 12.0393 15.8475 12.2346 15.6523L12.7064 15.1808C12.9017 14.9856 13.2182 14.9857 13.4134 15.1809L14.4739 16.2414Z" fill="#151414"/>
</svg>
