<svg width="24" height="24" viewBox="0 0 24 24" fill="none" xmlns="http://www.w3.org/2000/svg">
<path fill-rule="evenodd" clip-rule="evenodd" d="M12 3C10.6739 3 9.40215 3.52678 8.46447 4.46447C7.52678 5.40215 7 6.67392 7 8C7 9.32608 7.52678 10.5979 8.46447 11.5355C8.53043 11.6015 8.59804 11.6654 8.66721 11.7273C7.81069 12.1198 7.02217 12.6641 6.34315 13.3431C4.84285 14.8434 4 16.8783 4 19V20C4 20.5523 4.44772 21 5 21C5.55228 21 6 20.5523 6 20V19C6 17.4087 6.63214 15.8826 7.75736 14.7574C8.88258 13.6321 10.4087 13 12 13C13.5913 13 15.1174 13.6321 16.2426 14.7574C17.3679 15.8826 18 17.4087 18 19V20C18 20.5523 18.4477 21 19 21C19.5523 21 20 20.5523 20 20V19C20 16.8783 19.1571 14.8434 17.6569 13.3431C16.9778 12.6641 16.1893 12.1198 15.3328 11.7273C15.402 11.6654 15.4696 11.6015 15.5355 11.5355C16.4732 10.5979 17 9.32608 17 8C17 6.67392 16.4732 5.40215 15.5355 4.46447C14.5979 3.52678 13.3261 3 12 3ZM9.87868 5.87868C10.4413 5.31607 11.2043 5 12 5C12.7956 5 13.5587 5.31607 14.1213 5.87868C14.6839 6.44129 15 7.20435 15 8C15 8.79565 14.6839 9.55871 14.1213 10.1213C13.5587 10.6839 12.7956 11 12 11C11.2043 11 10.4413 10.6839 9.87868 10.1213C9.31607 9.55871 9 8.79565 9 8C9 7.20435 9.31607 6.44129 9.87868 5.87868Z" fill="#151414"/>
</svg>
